<svg xmlns="http://www.w3.org/2000/svg" xmlns:xlink="http://www.w3.org/1999/xlink" width="206.676" height="406" viewBox="0 0 206.676 406"><svg viewBox="0 0 198.496 198.496" width="198.496" height="198.496" id="boy" y="0"><path fill="#fdcc9b" d="M84.55 148.231h29.395v32.922H84.55z"></path><path d="M84.551 152.108s12.365 7.874 29.395 6.05v-9.928H84.551v3.878z" fill="#fcbc85"></path><ellipse cx="42.164" cy="97.181" rx="14.343" ry="16.364" fill="#fcbc85"></ellipse><ellipse cx="156.332" cy="97.181" rx="14.343" ry="16.364" fill="#fcbc85"></ellipse><path d="M156.274 65.925c0-24.103-17.637-41.741-57.026-41.741S42.222 41.821 42.222 65.925s-4.115 87.597 57.026 87.597c61.141 0 57.026-63.493 57.026-87.597z" fill="#fdcc9b"></path><ellipse cx="71.472" cy="93.262" rx="6.173" ry="6.761" fill="#3b2519"></ellipse><circle cx="68.781" cy="90.277" r="1.846" fill="#fff"></circle><path d="M61.597 76.507c2.919 1.46 7.606-4.96 18.335.625 1.956 1.018 3.123-8.708-8.377-8.708-9.958 0-11.722 7.202-9.958 8.083z" fill="#51362a"></path><ellipse cx="127.786" cy="93.262" rx="6.173" ry="6.761" fill="#3b2519"></ellipse><circle cx="125.095" cy="90.277" r="1.846" fill="#fff"></circle><path d="M136.899 76.507c-2.919 1.46-7.606-4.96-18.335.625-1.956 1.018-3.123-8.708 8.378-8.708 9.957 0 11.72 7.202 9.957 8.083z" fill="#51362a"></path><path d="M99.248 117.043c-6.1 0-9.774-4.556-9.774-2.352 0 2.205 1.764 6.394 9.774 6.394s9.774-4.189 9.774-6.394-3.675 2.352-9.774 2.352zM99.248 137.313c-2.11 0-3.381-1.576-3.381-.813s.61 2.211 3.381 2.211 3.38-1.448 3.38-2.211-1.271.813-3.38.813z" fill="#fcbc85"></path><path d="M99.248 131.696c-9.668 0-15.493-3.937-15.493-2.939 0 .998 2.796 4.924 15.493 4.924 12.697 0 15.493-3.926 15.493-4.924-.001-.998-5.825 2.939-15.493 2.939z" fill="#f7945e"></path><path d="M99.248 161.458v37.038H27.821c0-14.992 37.623-37.038 71.427-37.038zM99.248 161.458v37.038h71.427c0-14.992-37.623-37.038-71.427-37.038z" fill="#f7941e"></path><path d="M99.248 161.458c-7.19 0-14.552 1.005-21.689 2.72.048.063 7.916 10.214 21.689 10.214 12.754 0 21.233-8.693 22.462-10.03-7.378-1.831-15.012-2.904-22.462-2.904z" fill="#f36c21"></path><path d="M84.55 162.74s4.299 5.332 14.697 5.332 14.698-5.332 14.698-5.332-15.248-5.551-29.395 0z" fill="#fdcc9b"></path><path d="M146.132 19.041S124.968-7.855 80.98 2.286c-43.987 10.14-47.283 36.596-45.96 62.335 1.323 25.74 4.85 40.84 9.022 38.974 4.172-1.867 2.001-18.857 2.442-22.778.441-3.921 4.409-21.653 31.162-19.007 26.752 2.646 49.296-7.055 49.296-7.055s9.075 11.471 15.047 13.669c11.934 4.391 8.02 33.67 12.696 33.67s27.603-67.621-8.553-83.053z" fill="#51362a"></path></svg><svg viewBox="0 0 206.676 206.676" width="206.676" height="206.676" id="girl" y="199"><path d="M103.485 43.514v160.004s-90.83 9.412-90.83-34.866c0 0 24.397 3.075 19.402-17.273-6.332-25.796-2.79-67.574 0-90.408 2.79-22.835 71.428-17.457 71.428-17.457z" fill="#330c00"></path><path d="M103.191 43.514v160.004s90.83 9.412 90.83-34.866c0 0-24.397 3.075-19.402-17.273 6.332-25.796 2.79-67.574 0-90.408-2.791-22.835-71.428-17.457-71.428-17.457z" fill="#330c00"></path><path d="M105.07 179.723v-23.311s37.002-1.121 37.002 21.274l-37.002 2.037zM101.9 179.723v-23.311s-37.002-1.121-37.002 21.274l37.002 2.037z" fill="#00b497"></path><path fill="#fdcc9b" d="M88.788 156.41h29.395v32.923H88.788z"></path><path d="M88.788 160.288s12.364 7.874 29.395 6.051v-9.929H88.788v3.878z" fill="#fcbc85"></path><ellipse cx="46.4" cy="105.36" rx="14.343" ry="16.364" fill="#fcbc85"></ellipse><ellipse cx="160.568" cy="105.36" rx="14.343" ry="16.364" fill="#fcbc85"></ellipse><path d="M160.51 74.104c0-24.104-17.637-41.74-57.025-41.74-39.39 0-57.026 17.637-57.026 41.74 0 24.104-4.115 87.597 57.026 87.597 61.141 0 57.025-63.492 57.025-87.597z" fill="#fdcc9b"></path><ellipse cx="75.709" cy="101.442" rx="6.173" ry="6.761" fill="#3b2519"></ellipse><circle cx="73.018" cy="98.457" r="1.846" fill="#fff"></circle><path d="M65.834 86.865c2.919 1.117 7.606-3.799 18.336.478 1.955.78 3.123-6.668-8.378-6.668-9.958 0-11.722 5.514-9.958 6.19z" fill="#684b37"></path><ellipse cx="132.023" cy="101.442" rx="6.173" ry="6.761" fill="#3b2519"></ellipse><circle cx="129.332" cy="98.457" r="1.847" fill="#fff"></circle><path d="M141.135 86.865c-2.919 1.117-7.605-3.799-18.335.478-1.955.78-3.123-6.668 8.378-6.668 9.957 0 11.721 5.514 9.957 6.19z" fill="#684b37"></path><path d="M103.485 125.223c-6.1 0-9.774-4.557-9.774-2.352 0 2.204 1.764 6.394 9.774 6.394s9.773-4.189 9.773-6.394-3.674 2.352-9.773 2.352zM103.485 145.493c-2.11 0-3.381-1.576-3.381-.813s.61 2.212 3.381 2.212 3.38-1.449 3.38-2.212-1.271.813-3.38.813z" fill="#fcbc85"></path><path d="M103.485 139.876c-9.669 0-15.493-3.938-15.493-2.94 0 .997 2.796 4.924 15.493 4.924 12.697 0 15.493-3.927 15.493-4.924 0-.997-5.825 2.94-15.493 2.94z" fill="#f7945e"></path><circle cx="67.771" cy="123.048" r="8.377" fill="#f9aa8d"></circle><circle cx="140.229" cy="123.048" r="8.377" fill="#f9aa8d"></circle><path d="M103.485 169.638v37.038H39.112c0-14.991 30.569-37.038 64.373-37.038z" fill="#8fd6e7"></path><path d="M103.485 169.638v37.038h64.372c0-14.991-30.568-37.038-64.372-37.038z" fill="#8fd6e7"></path><path d="M103.485 204.999v-35.361c-9.417 0-18.551 1.752-26.874 4.544l26.874 30.817zM103.485 204.999v-35.361c9.416 0 18.55 1.752 26.874 4.544l-26.874 30.817z" fill="#f6b1cf"></path><path d="M103.485 169.638c-6.849 0-13.545.939-19.9 2.507.905 5.501 4.62 16.787 19.9 16.787 15.279 0 18.994-11.286 19.899-16.787-6.354-1.569-13.05-2.507-19.899-2.507z" fill="#f283b4"></path><path d="M88.788 170.92s-.001 13.239 14.697 13.239c14.697 0 14.697-13.239 14.697-13.239s-15.249-5.552-29.394 0z" fill="#fdcc9b"></path><path d="M80.992 172.401c.44-2.861-17.119-.752-16.976 7.321.145 8.073 19.401 14.284 24.692 17.224 5.291 2.939 14.697 9.729 14.697 9.729s1.764-6.82-6.467-12.082c-8.229-5.26-16.534-18.37-15.946-22.192z" fill="#3abdaa"></path><path d="M125.763 172.401c-.44-2.861 17.119-.752 16.976 7.321-.145 8.073-19.401 14.284-24.692 17.224-5.291 2.939-14.697 9.729-14.697 9.729s-1.764-6.82 6.467-12.082c8.229-5.26 16.534-18.37 15.946-22.192z" fill="#3abdaa"></path><path d="M103.485 0C37.346 0 28.528 57.747 28.528 100.303c0 42.557 22.031 67.27 39.243 74.172 0 0-27.485-48.708-13.964-93.8 11.063-36.894 49.678-26 49.678-26s38.613-10.895 49.677 26c13.521 45.092-13.964 93.8-13.964 93.8 17.213-6.902 39.244-31.615 39.244-74.172C178.442 57.747 169.624 0 103.485 0z" fill="#401900"></path><path d="M125.85 64.864s-24.824 12.444-46.746 9.946c-21.921-2.499-30.341 20.228-29.003 35.269l-7.316-33.476 13.228-26.485 37.698-19.4 35.621 1.646 16.893 14.668 14.344 17.832 10.083 11.739-4.851 36.126-10.268 12.349c.001 0 9.291-46.35-29.683-60.214z" fill="#401900"></path></svg></svg>